<svg xmlns="http://www.w3.org/2000/svg" viewBox="0 0 1600 400" width="1600" height="400">
  <rect width="1600" height="400" fill="#000033"/>

  <!-- original mark, no wordmark -->
  <g transform="translate(223.45 -6) scale(4)">
    <g fill="#9999FF" opacity="0.4">
      <rect x="10" y="10" width="6" height="8" rx="1"/>
      <rect x="10" y="25" width="6" height="8" rx="1"/>
      <rect x="10" y="40" width="6" height="8" rx="1"/>
      <rect x="10" y="55" width="6" height="8" rx="1"/>
      <rect x="10" y="70" width="6" height="8" rx="1"/>
      <rect x="10" y="85" width="6" height="8" rx="1"/>
    </g>

    <g fill="#9999FF" opacity="0.4">
      <rect x="84" y="10" width="6" height="8" rx="1"/>
      <rect x="84" y="25" width="6" height="8" rx="1"/>
      <rect x="84" y="40" width="6" height="8" rx="1"/>
      <rect x="84" y="55" width="6" height="8" rx="1"/>
      <rect x="84" y="70" width="6" height="8" rx="1"/>
      <rect x="84" y="85" width="6" height="8" rx="1"/>
    </g>

    <path d="M 50 22 L 50 68" stroke="#9999FF" stroke-width="8" stroke-linecap="round"/>

    <path d="M 32 50 L 50 72 L 68 50" stroke="#9999FF" stroke-width="8" stroke-linecap="round" stroke-linejoin="round" fill="none"/>
  </g>

  <!-- wordmark: "prem-down" -->
  <g fill="#9999FF">
    <path d="m 720.65198,254.30499 h 15.029 v -23.165 c 3.842,1.808 8.701,3.503 14.69,3.503 18.306,0 27.346,-13.786 27.346,-30.51 0,-20.114 -13.108,-31.075 -32.092,-31.075 -8.475,0 -16.837,1.243 -24.973,3.503 z m 27.12,-32.431 c -2.373,0 -4.746,-0.452 -6.893,-1.243 -2.26,-0.678 -3.955,-1.356 -5.198,-2.26 v -31.64 c 1.921,-0.339 5.311,-0.791 9.831,-0.791 11.187,0 16.95,8.362 16.95,18.645 0,9.718 -3.955,17.289 -14.69,17.289 z m 43.84403,11.526 h 15.029 v -46.33 c 1.243,-0.452 5.198,-1.13 8.249,-1.13 5.537,0 10.057,1.13 12.769,1.921 l 2.486,-12.43 c -2.147,-1.017 -6.102,-1.582 -9.492,-2.147 -1.921,-0.113 -3.39,-0.226 -4.633,-0.226 -8.701,0 -16.159,1.921 -24.408,4.407 z m 76.72713,1.469 c 4.407,0 8.927,-0.452 12.882,-1.243 3.955,-1.017 6.78,-1.808 8.249,-2.599 l -2.147,-12.317 c -3.503,1.582 -10.057,3.277 -17.402,3.277 -11.3,0 -17.741,-5.198 -18.645,-13.56 h 41.923 c 0.113,-1.469 0.226,-3.842 0.226,-5.537 0,-18.871 -9.492,-30.058 -28.137,-30.058 -18.306,0 -29.38,14.012 -29.38,31.301 0,20.34 13.334,30.736 32.431,30.736 z m -16.95,-36.951 c 1.13,-7.458 6.78,-12.543 14.238,-12.543 6.102,0 9.718,2.825 11.639,6.667 1.017,1.695 1.356,3.842 1.582,5.876 z m 56.04804,35.482 h 15.029 v -46.669 c 1.469,-0.339 3.277,-0.565 5.537,-0.791 1.243,0 2.26,0 3.616,0 5.65,0 8.701,2.373 9.944,7.345 0.904,2.599 1.13,5.876 1.13,9.944 v 30.171 h 14.916 v -31.753 c 0,-4.633 -0.339,-8.814 -1.469,-12.43 3.39,-1.921 6.78,-3.277 10.735,-3.277 5.537,0 8.701,2.26 9.944,7.345 0.791,2.486 1.017,5.876 1.017,9.944 v 30.171 h 15.029 v -32.657 c 0,-10.509 -1.921,-19.21 -8.701,-24.182 -3.503,-2.26 -8.475,-3.503 -15.255,-3.503 -4.633,0 -9.492,1.243 -13.447,3.164 -1.921,0.791 -3.729,1.808 -5.198,2.825 -3.503,-3.39 -8.701,-5.989 -17.515,-5.989 -8.588,0 -16.95,1.243 -25.312,3.503 z m 96.16302,-26.555 h 32.883 v -13.673 h -32.883 z m 74.4671,28.137 c 6.215,0 12.656,-0.791 18.193,-2.034 2.825,-0.452 4.972,-1.13 6.893,-1.582 v -85.654 l -15.029,2.486 v 28.363 c -3.842,-1.921 -8.136,-3.503 -14.125,-3.503 -18.645,0 -28.024,13.786 -28.024,30.962 0,19.888 13.221,30.962 32.092,30.962 z m 0.113,-12.995 c -7.119,0 -12.317,-3.503 -14.916,-9.266 -1.469,-2.712 -2.034,-5.876 -2.034,-9.492 0,-9.718 4.181,-17.289 14.803,-17.289 4.859,0 9.605,1.695 12.091,3.39 v 31.866 c -1.921,0.339 -5.424,0.791 -9.944,0.791 z m 69.043,12.882 c 18.758,0 30.284,-13.108 30.284,-31.075 0,-18.193 -12.317,-30.962 -30.284,-30.962 -18.193,0 -30.284,13.447 -30.284,30.962 0,18.08 12.317,31.075 30.284,31.075 z m 0,-12.882 c -10.396,0 -15.029,-9.04 -15.029,-18.193 0,-9.718 4.746,-17.967 15.029,-17.967 6.441,0 10.735,3.164 13.334,8.588 1.13,2.825 1.695,5.876 1.695,9.379 0,9.492 -4.859,18.193 -15.029,18.193 z m 57.856,11.413 h 11.413 c 2.825,-7.797 5.537,-15.82 8.362,-24.182 1.243,-4.181 2.373,-8.362 3.616,-12.543 2.486,8.362 5.311,16.498 8.249,24.747 1.469,4.181 2.825,8.023 4.181,11.978 h 11.413 c 3.277,-6.893 6.893,-15.481 10.509,-25.651 3.842,-10.17 7.797,-21.244 11.413,-33.335 h -15.707 c -3.39,13.673 -7.345,27.459 -12.091,40.68 -4.52,-13.447 -8.475,-27.007 -12.204,-40.68 h -10.509 c -3.616,13.673 -7.458,27.346 -12.43,40.567 -2.034,-5.537 -4.181,-12.769 -6.328,-20.001 -2.26,-7.345 -4.181,-14.577 -5.763,-20.566 h -15.933 c 5.989,19.549 12.995,40.567 21.809,58.986 z m 78.9869,0 h 15.029 v -46.669 c 1.017,-0.113 2.486,-0.452 4.294,-0.565 1.808,-0.226 3.729,-0.226 5.65,-0.226 11.526,0 12.43,7.91 12.43,17.176 v 30.284 h 15.029 v -32.77 c 0,-18.984 -7.684,-27.572 -26.216,-27.572 -8.814,0 -17.741,1.017 -26.216,3.503 z"/>
  </g>
</svg>
