<svg xmlns="http://www.w3.org/2000/svg" viewBox="0 0 1280 480" width="1280" height="480">
  <rect width="1280" height="480" fill="#000033"/>

  <!-- original mark, no wordmark -->
  <g transform="translate(119.6 -7.2) scale(4.8)">
    <g fill="#9999FF" opacity="0.4">
      <rect x="10" y="10" width="6" height="8" rx="1"/>
      <rect x="10" y="25" width="6" height="8" rx="1"/>
      <rect x="10" y="40" width="6" height="8" rx="1"/>
      <rect x="10" y="55" width="6" height="8" rx="1"/>
      <rect x="10" y="70" width="6" height="8" rx="1"/>
      <rect x="10" y="85" width="6" height="8" rx="1"/>
    </g>

    <g fill="#9999FF" opacity="0.4">
      <rect x="84" y="10" width="6" height="8" rx="1"/>
      <rect x="84" y="25" width="6" height="8" rx="1"/>
      <rect x="84" y="40" width="6" height="8" rx="1"/>
      <rect x="84" y="55" width="6" height="8" rx="1"/>
      <rect x="84" y="70" width="6" height="8" rx="1"/>
      <rect x="84" y="85" width="6" height="8" rx="1"/>
    </g>

    <path d="M 50 22 L 50 68" stroke="#9999FF" stroke-width="8" stroke-linecap="round"/>

    <path d="M 32 50 L 50 72 L 68 50" stroke="#9999FF" stroke-width="8" stroke-linecap="round" stroke-linejoin="round" fill="none"/>
  </g>

  <!-- wordmark: "prem" / "down" set in Mannin Bold, converted to outlines -->
  <g fill="#9999FF">
    <path d="m 765.3,228.21 h 17.955 v -27.675 c 4.59,2.16 10.395,4.185 17.55,4.185 21.87,0 32.67,-16.47 32.67,-36.45 0,-24.03 -15.66,-37.125 -38.34,-37.125 -10.125,0 -20.115,1.485 -29.835,4.185 z m 32.4,-38.745 c -2.835,0 -5.67,-0.54 -8.235,-1.485 -2.7,-0.81 -4.725,-1.62 -6.21,-2.7 v -37.8 c 2.295,-0.405 6.345,-0.945 11.745,-0.945 13.365,0 20.25,9.99 20.25,22.275 0,11.61 -4.725,20.655 -17.55,20.655 z m 52.38003,13.77 h 17.955 v -55.35 c 1.485,-0.54 6.21,-1.35 9.855,-1.35 6.615,0 12.015,1.35 15.255,2.295 l 2.97,-14.85 c -2.565,-1.215 -7.29,-1.89 -11.34,-2.565 -2.295,-0.135 -4.05,-0.27 -5.535,-0.27 -10.395,0 -19.305,2.295 -29.16,5.265 z m 91.66517,1.755 c 5.265,0 10.665,-0.54 15.39,-1.485 4.725,-1.215 8.1,-2.16 9.855,-3.105 l -2.565,-14.715 c -4.185,1.89 -12.015,3.915 -20.79,3.915 -13.5,0 -21.195,-6.21 -22.275,-16.2 h 50.085 c 0.135,-1.755 0.27,-4.59 0.27,-6.615 0,-22.545 -11.34,-35.91 -33.615,-35.91 -21.87,0 -35.1,16.74 -35.1,37.395 0,24.3 15.93,36.72 38.745,36.72 z m -20.25,-44.145 c 1.35,-8.91 8.1,-14.985 17.01,-14.985 7.29,0 11.61,3.375 13.905,7.965 1.215,2.025 1.62,4.59 1.89,7.02 z m 66.96004,42.39 h 17.95496 V 147.48 c 1.755,-0.405 3.915,-0.675 6.615,-0.945 1.485,0 2.7,0 4.32,0 6.75,0 10.395,2.835 11.88,8.775 1.08,3.105 1.35,7.02 1.35,11.88 v 36.045 h 17.82 V 165.3 c 0,-5.535 -0.405,-10.53 -1.755,-14.85 4.05,-2.295 8.1,-3.915 12.825,-3.915 6.615,0 10.395,2.7 11.88,8.775 0.945,2.97 1.215,7.02 1.215,11.88 v 36.045 h 17.955 V 164.22 c 0,-12.555 -2.295,-22.95 -10.395,-28.89 -4.185,-2.7 -10.125,-4.185 -18.225,-4.185 -5.535,0 -11.34,1.485 -16.065,3.78 -2.295,0.945 -4.455,2.16 -6.21,3.375 -4.185,-4.05 -10.395,-7.155 -20.925,-7.155 -10.26,0 -20.24996,1.485 -30.23996,4.185 z"/>
    <path d="m 803.64001,349.12499 c 7.425,0 15.12,-0.945 21.735,-2.43 3.375,-0.54 5.94,-1.35 8.235,-1.89 v -102.33 l -17.955,2.97 v 33.885 c -4.59,-2.295 -9.72,-4.185 -16.875,-4.185 -22.275,0 -33.48,16.47 -33.48,36.99 0,23.76 15.795,36.99 38.34,36.99 z m 0.135,-15.525 c -8.505,0 -14.715,-4.185 -17.82,-11.07 -1.755,-3.24 -2.43,-7.02 -2.43,-11.34 0,-11.61 4.995,-20.655 17.685,-20.655 5.805,0 11.475,2.025 14.445,4.05 v 38.07 c -2.295,0.405 -6.48,0.945 -11.88,0.945 z m 82.48503,15.39 c 22.41,0 36.18,-15.66 36.18,-37.125 0,-21.735 -14.715,-36.99 -36.18,-36.99 -21.735,0 -36.18,16.065 -36.18,36.99 0,21.6 14.715,37.125 36.18,37.125 z m 0,-15.39 c -12.42,0 -17.955,-10.8 -17.955,-21.735 0,-11.61 5.67,-21.465 17.955,-21.465 7.695,0 12.825,3.78 15.93,10.26 1.35,3.375 2.025,7.02 2.025,11.205 0,11.34 -5.805,21.735 -17.955,21.735 z m 69.11997,13.635 h 13.635 c 3.375,-9.315 6.615,-18.9 9.99,-28.89 1.485,-4.995 2.835,-9.99 4.32,-14.985 2.97,9.99 6.345,19.71 9.855,29.565 1.755,4.995 3.375,9.585 4.995,14.31 H 1011.81 c 3.915,-8.235 8.235,-18.495 12.555,-30.645 4.59,-12.15 9.315,-25.38 13.635,-39.825 h -18.765 c -4.05,16.335 -8.775,32.805 -14.445,48.6 -5.39999,-16.065 -10.12499,-32.265 -14.57999,-48.6 h -12.555 c -4.32,16.335 -8.91,32.67 -14.85,48.465 -2.43,-6.615 -4.995,-15.255 -7.56,-23.895 -2.7,-8.775 -4.995,-17.415 -6.885,-24.57 h -19.035 c 7.155,23.355 15.525,48.465 26.055,70.47 z m 94.36489,0 h 17.955 v -55.755 c 1.215,-0.135 2.97,-0.54 5.13,-0.675 2.16,-0.27 4.455,-0.27 6.75,-0.27 13.77,0 14.85,9.45 14.85,20.52 v 36.18 h 17.955 v -39.15 c 0,-22.68 -9.18,-32.94 -31.32,-32.94 -10.53,0 -21.195,1.215 -31.32,4.185 z"/>
  </g>
</svg>
